<?xml version="1.0" standalone="no"?>
<!DOCTYPE svg PUBLIC "-//W3C//DTD SVG 20010904//EN"
 "http://www.w3.org/TR/2001/REC-SVG-20010904/DTD/svg10.dtd">
<svg version="1.0" xmlns="http://www.w3.org/2000/svg"
 width="696.000000pt" height="696.000000pt" viewBox="0 0 696.000000 696.000000"
 preserveAspectRatio="xMidYMid meet">
<metadata>
Created by potrace 1.11, written by Peter Selinger 2001-2013
</metadata>
<g transform="translate(0.000000,696.000000) scale(0.100000,-0.100000)"
fill="#000000" stroke="none">
<path d="M440 5620 l0 -900 200 0 200 0 0 -1240 0 -1240 -200 0 -200 0 0 -900
0 -900 1280 0 1280 0 0 900 0 900 -200 0 -200 0 0 493 c1 442 2 490 16 472 8
-11 407 -638 885 -1393 l871 -1372 1074 0 1074 0 0 900 0 900 -200 0 -200 0 0
1240 0 1240 200 0 200 0 0 900 0 900 -1280 0 -1280 0 0 -900 0 -900 200 0 200
0 0 -492 c0 -303 -4 -488 -9 -482 -7 6 -1458 2292 -1747 2752 l-14 22 -1075 0
-1075 0 0 -900z m3038 -647 c512 -808 938 -1477 946 -1488 14 -18 15 49 16
648 l0 667 -200 0 -200 0 0 820 0 820 1200 0 1200 0 0 -820 0 -820 -200 0
-200 0 0 -1320 0 -1320 200 0 200 0 0 -820 0 -820 -1013 0 -1014 0 -931 1468
c-512 807 -938 1476 -946 1487 -14 18 -15 -48 -16 -647 l0 -668 200 0 200 0 0
-820 0 -820 -1200 0 -1200 0 0 820 0 820 200 0 200 0 0 1320 0 1320 -200 0
-200 0 0 820 0 820 1014 0 1013 0 931 -1467z"/>
<path d="M640 5620 l0 -700 200 0 200 0 0 -1440 0 -1440 -200 0 -200 0 0 -700
0 -700 1080 0 1080 0 0 700 0 700 -200 0 -200 0 1 938 c0 862 1 935 16 914 9
-13 476 -748 1038 -1635 l1023 -1612 921 -3 921 -2 0 700 0 700 -200 0 -200 0
0 1440 0 1440 200 0 200 0 0 700 0 700 -1080 0 -1080 0 0 -700 0 -700 200 0
200 0 0 -937 c0 -515 -3 -933 -7 -930 -3 4 -471 740 -1038 1635 l-1032 1627
-922 3 -921 2 0 -700z"/>
<path d="M6730 738 c-48 -25 -90 -89 -90 -138 0 -76 83 -160 160 -160 77 0
159 82 160 158 0 18 -9 50 -20 72 -42 81 -129 110 -210 68z m129 -26 c99 -53
88 -194 -17 -232 -80 -28 -158 22 -168 106 -7 52 21 104 66 126 45 23 77 23
119 0z"/>
<path d="M6740 600 c0 -73 3 -90 15 -90 10 0 15 10 15 34 0 50 16 53 40 6 11
-22 27 -40 35 -40 13 0 12 6 -4 38 -19 38 -19 39 0 55 21 19 24 39 9 68 -8 15
-22 19 -60 19 l-50 0 0 -90z m78 43 c-2 -20 -9 -29 -25 -31 -20 -3 -23 1 -23
27 0 27 4 31 26 31 22 0 25 -4 22 -27z"/>
</g>
</svg>
